<?xml version="1.0" encoding="utf-8"?>
<!-- Generator: Adobe Illustrator 17.0.0, SVG Export Plug-In . SVG Version: 6.00 Build 0)  -->
<!DOCTYPE svg PUBLIC "-//W3C//DTD SVG 1.1//EN" "http://www.w3.org/Graphics/SVG/1.1/DTD/svg11.dtd">
<svg version="1.1" id="Layer_1" xmlns="http://www.w3.org/2000/svg" xmlns:xlink="http://www.w3.org/1999/xlink" x="0px" y="0px"
	 width="8px" height="16px" viewBox="0 0 8 16" enable-background="new 0 0 8 16" xml:space="preserve">
<path display="none" fill="#287481" d="M4,16c0.1,0,0.2-0.1,0.2-0.1l3.7-5.4C8,10.4,8,10.3,8,10.2C7.9,10.1,7.8,10,7.7,10H0.3
	c-0.1,0-0.2,0.1-0.3,0.1c-0.1,0.1,0,0.2,0,0.3l3.7,5.4C3.8,15.9,3.9,16,4,16z"/>
<path display="none" fill="#287481" d="M4,0C3.9,0,3.8,0.1,3.8,0.1L0.1,5.5C0,5.6,0,5.7,0,5.8C0.1,5.9,0.2,6,0.3,6h7.4
	C7.8,6,7.9,5.9,8,5.8c0.1-0.1,0-0.2,0-0.3L4.2,0.1C4.2,0.1,4.1,0,4,0z"/>
<g>
	<path fill="#010101" d="M6.516,10.875H1.451c-0.429,0-0.778-0.349-0.778-0.778L0.671,7.909L0.585,7.908L0.55,7.899
		C0.381,7.855,0.236,7.759,0.13,7.622c-0.261-0.34-0.198-0.829,0.141-1.09l3.254-2.505c0.27-0.208,0.677-0.208,0.948,0l3.254,2.506
		c0.164,0.126,0.27,0.31,0.297,0.516c0.027,0.206-0.028,0.41-0.155,0.575c-0.14,0.182-0.348,0.291-0.576,0.302v2.173
		C7.294,10.526,6.945,10.875,6.516,10.875z M0.67,7.322l0.586,0.004l0.004,2.772c0,0.106,0.086,0.191,0.191,0.191h5.065
		c0.105,0,0.191-0.086,0.191-0.191V7.338h0.547c0.061,0,0.114-0.026,0.151-0.074c0.032-0.041,0.045-0.09,0.038-0.141
		C7.436,7.072,7.411,7.028,7.37,6.997L4.116,4.491c-0.065-0.05-0.167-0.05-0.233,0L0.629,6.996C0.546,7.06,0.531,7.18,0.595,7.264
		C0.615,7.289,0.64,7.309,0.67,7.322z"/>
</g>
</svg>
