<?xml version="1.0" encoding="utf-8"?>
<!-- Generator: Adobe Illustrator 17.0.0, SVG Export Plug-In . SVG Version: 6.00 Build 0)  -->
<!DOCTYPE svg PUBLIC "-//W3C//DTD SVG 1.1//EN" "http://www.w3.org/Graphics/SVG/1.1/DTD/svg11.dtd">
<svg version="1.1" id="Layer_1" xmlns="http://www.w3.org/2000/svg" xmlns:xlink="http://www.w3.org/1999/xlink" x="0px" y="0px"
	 width="40px" height="40px" viewBox="0 0 40 40" enable-background="new 0 0 40 40" xml:space="preserve">
<g>
	<path fill="#FFFFFF" d="M32.482,40H7.356c-2.127,0-3.858-1.731-3.858-3.858L3.483,25.284l-0.423-0.003l-0.175-0.045
		c-0.838-0.217-1.559-0.692-2.084-1.374c-1.297-1.684-0.983-4.11,0.702-5.409L17.645,6.024c1.34-1.032,3.36-1.034,4.705-0.002
		l16.143,12.431c0.816,0.627,1.339,1.536,1.472,2.559c0.133,1.021-0.139,2.034-0.768,2.85c-0.696,0.903-1.729,1.442-2.857,1.499
		v10.781C36.339,38.269,34.609,40,32.482,40z M3.482,22.373l2.909,0.019l0.019,13.749c0,0.523,0.424,0.948,0.947,0.948h25.126
		c0.522,0,0.946-0.424,0.946-0.947V22.455h2.711c0.301,0,0.568-0.131,0.75-0.369c0.157-0.203,0.222-0.445,0.188-0.699
		c-0.033-0.255-0.158-0.472-0.36-0.628L20.576,8.33c-0.323-0.249-0.831-0.25-1.155,0.001L3.279,20.759
		c-0.413,0.318-0.49,0.913-0.172,1.326C3.206,22.212,3.334,22.31,3.482,22.373z"/>
</g>
</svg>
